<svg xmlns="http://www.w3.org/2000/svg" width="18.333" height="18.323" viewBox="0 0 18.333 18.323">
  <g id="energy" transform="translate(0.352 0.386)">
    <path id="Path_58577" data-name="Path 58577" d="M17.475,8.44,9.7.378,9.691.371a1.241,1.241,0,0,0-1.753,0L7.931.378.154,8.44a.551.551,0,1,0,.793.765l.43-.446v7.294a1.586,1.586,0,0,0,1.584,1.584H14.668a1.586,1.586,0,0,0,1.584-1.584V8.76l.43.446a.551.551,0,1,0,.793-.765ZM15.15,16.054a.483.483,0,0,1-.482.482H2.961a.483.483,0,0,1-.482-.482V7.617L8.719,1.148a.138.138,0,0,1,.19,0L15.15,7.617Z" transform="translate(0 0)" fill="#fff" stroke="#fff" stroke-width="0.6"/>
  </g>
</svg>
